<svg xmlns="http://www.w3.org/2000/svg" viewBox="0 0 512 512"><defs><radialGradient id="bg" cx="50%" cy="35%" r="70%"><stop offset="0" stop-color="#fff"/><stop offset="1" stop-color="#eaf4ff"/></radialGradient><linearGradient id="b" x1="0" y1="0" x2="1" y2="1"><stop stop-color="#34c7ff"/><stop offset=".5" stop-color="#1685ff"/><stop offset="1" stop-color="#1240b8"/></linearGradient><linearGradient id="w" x1="0" y1="0" x2="1" y2="1"><stop stop-color="#fff"/><stop offset="1" stop-color="#dceeff"/></linearGradient></defs><rect width="512" height="512" rx="110" fill="url(#bg)"/><g transform="translate(256 188)"><g fill="url(#b)" stroke="#0e55c6" stroke-width="3"><ellipse rx="48" ry="98" transform="rotate(0) translate(0 -92)"/><ellipse rx="48" ry="98" transform="rotate(45) translate(0 -92)"/><ellipse rx="48" ry="98" transform="rotate(90) translate(0 -92)"/><ellipse rx="48" ry="98" transform="rotate(135) translate(0 -92)"/><ellipse rx="48" ry="98" transform="rotate(180) translate(0 -92)"/><ellipse rx="48" ry="98" transform="rotate(225) translate(0 -92)"/><ellipse rx="48" ry="98" transform="rotate(270) translate(0 -92)"/><ellipse rx="48" ry="98" transform="rotate(315) translate(0 -92)"/></g><g fill="url(#w)" opacity=".96"><ellipse rx="30" ry="76" transform="rotate(22.5) translate(0 -86)"/><ellipse rx="30" ry="76" transform="rotate(112.5) translate(0 -86)"/><ellipse rx="30" ry="76" transform="rotate(202.5) translate(0 -86)"/><ellipse rx="30" ry="76" transform="rotate(292.5) translate(0 -86)"/></g><circle r="104" fill="#fff" stroke="#d4e8ff" stroke-width="4"/><ellipse cx="-38" cy="-5" rx="19" ry="26" fill="#0c2d79"/><ellipse cx="38" cy="-5" rx="19" ry="26" fill="#0c2d79"/><circle cx="-32" cy="-12" r="6" fill="#fff"/><circle cx="44" cy="-12" r="6" fill="#fff"/><path d="M-28 37 Q0 58 28 37" fill="none" stroke="#18457f" stroke-width="8" stroke-linecap="round"/><circle cx="-58" cy="26" r="14" fill="#ffd7e6" opacity=".55"/><circle cx="58" cy="26" r="14" fill="#ffd7e6" opacity=".55"/></g><g transform="translate(256 355)"><ellipse rx="72" ry="94" fill="#fff" stroke="#d4e8ff" stroke-width="4"/><path d="M-66 -35 Q-108 4 -94 42 Q-50 34 -26 3" fill="url(#b)" stroke="#0e55c6" stroke-width="3"/><path d="M66 -35 Q108 4 94 42 Q50 34 26 3" fill="url(#b)" stroke="#0e55c6" stroke-width="3"/><path d="M-46 73 Q-44 105 -14 107 Q-8 82 -20 60" fill="url(#b)"/><path d="M46 73 Q44 105 14 107 Q8 82 20 60" fill="url(#b)"/></g></svg>